<svg xmlns="http://www.w3.org/2000/svg" xmlns:xlink="http://www.w3.org/1999/xlink" width="25" zoomAndPan="magnify" viewBox="0 0 18.75 18.749999" height="25" preserveAspectRatio="xMidYMid meet" version="1.0"><defs><clipPath id="e7e9128252"><path d="M 0 0 L 18 0 L 18 17.761719 L 0 17.761719 Z M 0 0 " clip-rule="nonzero"/></clipPath><clipPath id="33a5d4a9e7"><path d="M 2.785156 7.460938 L 5.746094 7.460938 L 5.746094 10.421875 L 2.785156 10.421875 Z M 2.785156 7.460938 " clip-rule="nonzero"/></clipPath><clipPath id="0935581f29"><path d="M 7.808594 7.460938 L 10.769531 7.460938 L 10.769531 10.421875 L 7.808594 10.421875 Z M 7.808594 7.460938 " clip-rule="nonzero"/></clipPath><clipPath id="b7e4152d0a"><path d="M 12.832031 7.460938 L 15.792969 7.460938 L 15.792969 10.421875 L 12.832031 10.421875 Z M 12.832031 7.460938 " clip-rule="nonzero"/></clipPath></defs><path fill="#612940" d="M 0.546875 14.230469 L 1.121094 13.011719 L 1.503906 12.195312 C 1.585938 12.015625 1.589844 11.8125 1.519531 11.628906 C 1.410156 11.359375 1.3125 11.082031 1.230469 10.792969 C -0.0234375 6.375 2.546875 1.773438 6.964844 0.519531 C 11.382812 -0.730469 15.988281 1.839844 17.238281 6.253906 C 18.492188 10.675781 15.925781 15.273438 11.503906 16.527344 C 8.898438 17.269531 6.226562 16.675781 4.21875 15.160156 C 4.078125 15.054688 3.90625 15.003906 3.734375 15.019531 L 2.582031 15.117188 L 1.242188 15.230469 C 0.703125 15.277344 0.316406 14.722656 0.546875 14.230469 Z M 0.546875 14.230469 " fill-opacity="1" fill-rule="nonzero"/><path fill="#612940" d="M 12.566406 6.222656 C 12.273438 5.828125 11.878906 5.589844 11.390625 5.527344 C 10.742188 5.445312 10.179688 5.640625 9.707031 6.09375 C 9.523438 6.265625 9.390625 6.472656 9.324219 6.722656 C 9.3125 6.757812 9.308594 6.796875 9.300781 6.835938 C 9.292969 6.796875 9.285156 6.757812 9.277344 6.722656 C 9.210938 6.472656 9.078125 6.265625 8.894531 6.09375 C 8.421875 5.640625 7.859375 5.445312 7.207031 5.527344 C 6.71875 5.589844 6.328125 5.828125 6.035156 6.222656 C 5.710938 6.664062 5.613281 7.164062 5.664062 7.703125 C 5.964844 10.046875 8.25 11.519531 9.261719 11.941406 C 9.277344 11.949219 9.324219 11.949219 9.339844 11.941406 C 10.347656 11.519531 12.636719 10.046875 12.933594 7.703125 C 12.988281 7.164062 12.890625 6.664062 12.566406 6.222656 Z M 12.566406 6.222656 " fill-opacity="1" fill-rule="nonzero"/><g clip-path="url(#e7e9128252)"><path fill="#612940" d="M 17.4375 6.199219 C 16.816406 4.011719 15.378906 2.195312 13.390625 1.082031 C 11.398438 -0.0273438 9.097656 -0.296875 6.910156 0.324219 C 2.386719 1.605469 -0.246094 6.328125 1.035156 10.851562 C 1.117188 11.140625 1.214844 11.425781 1.328125 11.707031 C 1.378906 11.835938 1.375 11.984375 1.316406 12.109375 L 0.363281 14.144531 C 0.222656 14.441406 0.25 14.78125 0.4375 15.050781 C 0.625 15.320312 0.933594 15.464844 1.261719 15.4375 L 3.75 15.222656 C 3.875 15.214844 3.996094 15.25 4.09375 15.324219 C 5.601562 16.464844 7.386719 17.054688 9.214844 17.054688 C 9.996094 17.054688 10.785156 16.945312 11.5625 16.726562 C 13.75 16.105469 15.570312 14.667969 16.679688 12.679688 C 17.789062 10.691406 18.058594 8.390625 17.4375 6.199219 Z M 16.320312 12.480469 C 15.265625 14.371094 13.535156 15.738281 11.449219 16.332031 C 8.984375 17.03125 6.390625 16.546875 4.34375 14.996094 C 4.183594 14.878906 3.988281 14.8125 3.792969 14.8125 C 3.765625 14.8125 3.742188 14.8125 3.714844 14.816406 L 1.226562 15.027344 C 1.046875 15.042969 0.878906 14.964844 0.773438 14.816406 C 0.671875 14.667969 0.65625 14.480469 0.734375 14.320312 C 0.734375 14.320312 1.6875 12.28125 1.6875 12.28125 C 1.796875 12.054688 1.800781 11.789062 1.707031 11.554688 C 1.601562 11.289062 1.507812 11.011719 1.429688 10.738281 C 0.207031 6.433594 2.71875 1.941406 7.023438 0.71875 C 9.105469 0.128906 11.296875 0.382812 13.1875 1.441406 C 15.082031 2.5 16.453125 4.226562 17.042969 6.3125 C 17.632812 8.398438 17.378906 10.585938 16.320312 12.480469 Z M 16.320312 12.480469 " fill-opacity="1" fill-rule="nonzero"/></g><path fill="#612940" d="M 11.417969 5.324219 C 10.710938 5.234375 10.089844 5.445312 9.5625 5.945312 C 9.460938 6.042969 9.371094 6.152344 9.300781 6.265625 C 9.230469 6.152344 9.140625 6.046875 9.035156 5.945312 C 8.511719 5.445312 7.886719 5.234375 7.183594 5.324219 C 6.640625 5.394531 6.199219 5.65625 5.871094 6.101562 C 5.535156 6.554688 5.398438 7.101562 5.460938 7.730469 C 5.765625 10.113281 8.027344 11.648438 9.179688 12.128906 C 9.214844 12.144531 9.257812 12.152344 9.300781 12.152344 C 9.34375 12.152344 9.386719 12.144531 9.421875 12.128906 C 10.574219 11.648438 12.835938 10.113281 13.140625 7.722656 C 13.203125 7.101562 13.0625 6.554688 12.730469 6.101562 C 12.402344 5.65625 11.960938 5.394531 11.417969 5.324219 Z M 12.730469 7.675781 C 12.457031 9.851562 10.390625 11.269531 9.300781 11.734375 C 8.210938 11.269531 6.144531 9.851562 5.871094 7.683594 C 5.816406 7.15625 5.925781 6.71875 6.199219 6.34375 C 6.460938 5.992188 6.804688 5.785156 7.234375 5.730469 C 7.320312 5.71875 7.40625 5.714844 7.492188 5.714844 C 7.964844 5.714844 8.386719 5.890625 8.753906 6.242188 C 8.914062 6.398438 9.023438 6.578125 9.078125 6.773438 C 9.085938 6.800781 9.089844 6.828125 9.09375 6.855469 L 9.097656 6.875 C 9.117188 6.972656 9.203125 7.042969 9.300781 7.042969 C 9.398438 7.042969 9.480469 6.972656 9.5 6.875 L 9.503906 6.855469 C 9.507812 6.828125 9.515625 6.800781 9.523438 6.773438 C 9.574219 6.578125 9.683594 6.398438 9.847656 6.242188 C 10.277344 5.828125 10.789062 5.65625 11.367188 5.730469 C 11.792969 5.785156 12.140625 5.992188 12.398438 6.34375 C 12.675781 6.71875 12.78125 7.15625 12.730469 7.679688 Z M 12.730469 7.675781 " fill-opacity="1" fill-rule="nonzero"/><g clip-path="url(#33a5d4a9e7)"><path fill="#ddd78d" d="M 5.667969 8.898438 C 5.667969 9.089844 5.628906 9.273438 5.554688 9.453125 C 5.484375 9.628906 5.378906 9.785156 5.246094 9.917969 C 5.109375 10.054688 4.953125 10.15625 4.777344 10.230469 C 4.601562 10.304688 4.417969 10.339844 4.226562 10.339844 C 4.035156 10.339844 3.851562 10.304688 3.675781 10.230469 C 3.5 10.15625 3.34375 10.054688 3.207031 9.917969 C 3.074219 9.785156 2.96875 9.628906 2.894531 9.453125 C 2.824219 9.273438 2.785156 9.089844 2.785156 8.898438 C 2.785156 8.710938 2.824219 8.527344 2.894531 8.347656 C 2.96875 8.171875 3.074219 8.015625 3.207031 7.882812 C 3.34375 7.746094 3.5 7.644531 3.675781 7.570312 C 3.851562 7.496094 4.035156 7.460938 4.226562 7.460938 C 4.417969 7.460938 4.601562 7.496094 4.777344 7.570312 C 4.953125 7.644531 5.109375 7.746094 5.246094 7.882812 C 5.378906 8.015625 5.484375 8.171875 5.554688 8.347656 C 5.628906 8.527344 5.667969 8.710938 5.667969 8.898438 Z M 5.667969 8.898438 " fill-opacity="1" fill-rule="nonzero"/></g><g clip-path="url(#0935581f29)"><path fill="#ddd78d" d="M 10.6875 8.898438 C 10.6875 9.089844 10.652344 9.273438 10.578125 9.453125 C 10.507812 9.628906 10.402344 9.785156 10.265625 9.917969 C 10.132812 10.054688 9.976562 10.15625 9.800781 10.230469 C 9.625 10.304688 9.441406 10.339844 9.25 10.339844 C 9.058594 10.339844 8.875 10.304688 8.699219 10.230469 C 8.519531 10.15625 8.367188 10.054688 8.230469 9.917969 C 8.09375 9.785156 7.992188 9.628906 7.917969 9.453125 C 7.84375 9.273438 7.808594 9.089844 7.808594 8.898438 C 7.808594 8.710938 7.84375 8.527344 7.917969 8.347656 C 7.992188 8.171875 8.09375 8.015625 8.230469 7.882812 C 8.367188 7.746094 8.519531 7.644531 8.699219 7.570312 C 8.875 7.496094 9.058594 7.460938 9.25 7.460938 C 9.441406 7.460938 9.625 7.496094 9.800781 7.570312 C 9.976562 7.644531 10.132812 7.746094 10.265625 7.882812 C 10.402344 8.015625 10.507812 8.171875 10.578125 8.347656 C 10.652344 8.527344 10.6875 8.710938 10.6875 8.898438 Z M 10.6875 8.898438 " fill-opacity="1" fill-rule="nonzero"/></g><g clip-path="url(#b7e4152d0a)"><path fill="#ddd78d" d="M 15.710938 8.898438 C 15.710938 9.089844 15.675781 9.273438 15.601562 9.453125 C 15.527344 9.628906 15.425781 9.785156 15.289062 9.917969 C 15.15625 10.054688 15 10.15625 14.820312 10.230469 C 14.644531 10.304688 14.460938 10.339844 14.269531 10.339844 C 14.082031 10.339844 13.898438 10.304688 13.71875 10.230469 C 13.542969 10.15625 13.386719 10.054688 13.253906 9.917969 C 13.117188 9.785156 13.015625 9.628906 12.941406 9.453125 C 12.867188 9.273438 12.832031 9.089844 12.832031 8.898438 C 12.832031 8.710938 12.867188 8.527344 12.941406 8.347656 C 13.015625 8.171875 13.117188 8.015625 13.253906 7.882812 C 13.386719 7.746094 13.542969 7.644531 13.71875 7.570312 C 13.898438 7.496094 14.082031 7.460938 14.269531 7.460938 C 14.460938 7.460938 14.644531 7.496094 14.820312 7.570312 C 15 7.644531 15.15625 7.746094 15.289062 7.882812 C 15.425781 8.015625 15.527344 8.171875 15.601562 8.347656 C 15.675781 8.527344 15.710938 8.710938 15.710938 8.898438 Z M 15.710938 8.898438 " fill-opacity="1" fill-rule="nonzero"/></g></svg>