<svg xmlns="http://www.w3.org/2000/svg" xmlns:xlink="http://www.w3.org/1999/xlink" width="99" zoomAndPan="magnify" viewBox="0 0 74.25 31.5" height="42" preserveAspectRatio="xMidYMid meet" version="1.0"><defs><g/><clipPath id="1872080613"><path d="M 21.128906 18.199219 L 25.777344 18.199219 L 25.777344 22.679688 L 21.128906 22.679688 Z M 21.128906 18.199219 " clip-rule="nonzero"/></clipPath><clipPath id="7c8baeb1e3"><path d="M 21.128906 18.199219 L 25.777344 18.199219 L 25.777344 22.679688 L 21.128906 22.679688 Z M 21.128906 18.199219 " clip-rule="nonzero"/></clipPath><clipPath id="f7c9f0d3e1"><path d="M 21.828125 20.082031 L 22.578125 20.082031 L 22.578125 20.828125 L 21.828125 20.828125 Z M 21.828125 20.082031 " clip-rule="nonzero"/></clipPath><clipPath id="8e8e9e0159"><path d="M 23.097656 20.082031 L 23.84375 20.082031 L 23.84375 20.828125 L 23.097656 20.828125 Z M 23.097656 20.082031 " clip-rule="nonzero"/></clipPath><clipPath id="77f0a60741"><path d="M 24.363281 20.082031 L 25.109375 20.082031 L 25.109375 20.828125 L 24.363281 20.828125 Z M 24.363281 20.082031 " clip-rule="nonzero"/></clipPath></defs><g fill="#ffd3db" fill-opacity="1"><g transform="translate(5.372921, 22.511492)"><g><path d="M 2.453125 0 C 2.109375 0 1.816406 -0.117188 1.578125 -0.359375 C 1.335938 -0.597656 1.21875 -0.890625 1.21875 -1.234375 L 1.21875 -13.546875 C 1.21875 -13.898438 1.335938 -14.191406 1.578125 -14.421875 C 1.816406 -14.660156 2.109375 -14.78125 2.453125 -14.78125 L 13.296875 -14.78125 C 13.648438 -14.78125 13.941406 -14.660156 14.171875 -14.421875 C 14.410156 -14.191406 14.53125 -13.898438 14.53125 -13.546875 L 14.53125 -12.6875 C 14.53125 -12.332031 14.410156 -12.035156 14.171875 -11.796875 C 13.941406 -11.554688 13.648438 -11.4375 13.296875 -11.4375 L 6.46875 -11.4375 C 6.132812 -11.4375 5.847656 -11.316406 5.609375 -11.078125 C 5.378906 -10.847656 5.265625 -10.5625 5.265625 -10.21875 C 5.265625 -9.882812 5.378906 -9.597656 5.609375 -9.359375 C 5.847656 -9.128906 6.132812 -9.015625 6.46875 -9.015625 L 12.546875 -9.015625 C 12.910156 -9.015625 13.207031 -8.894531 13.4375 -8.65625 C 13.675781 -8.425781 13.796875 -8.132812 13.796875 -7.78125 L 13.796875 -7.046875 C 13.796875 -6.679688 13.671875 -6.378906 13.421875 -6.140625 C 13.179688 -5.898438 12.890625 -5.78125 12.546875 -5.78125 L 6.46875 -5.78125 C 6.132812 -5.78125 5.847656 -5.660156 5.609375 -5.421875 C 5.378906 -5.179688 5.265625 -4.894531 5.265625 -4.5625 C 5.265625 -4.21875 5.378906 -3.925781 5.609375 -3.6875 C 5.847656 -3.457031 6.132812 -3.34375 6.46875 -3.34375 L 13.296875 -3.34375 C 13.648438 -3.34375 13.941406 -3.222656 14.171875 -2.984375 C 14.410156 -2.753906 14.53125 -2.460938 14.53125 -2.109375 L 14.53125 -1.234375 C 14.53125 -0.890625 14.410156 -0.597656 14.171875 -0.359375 C 13.941406 -0.117188 13.648438 0 13.296875 0 Z M 2.453125 0 "/></g></g></g><g fill="#ffd3db" fill-opacity="1"><g transform="translate(25.792185, 22.511492)"><g><path d="M 2.453125 0 C 2.109375 0 1.816406 -0.117188 1.578125 -0.359375 C 1.335938 -0.597656 1.21875 -0.890625 1.21875 -1.234375 L 1.21875 -13.546875 C 1.21875 -13.898438 1.335938 -14.191406 1.578125 -14.421875 C 1.816406 -14.660156 2.109375 -14.78125 2.453125 -14.78125 L 4.03125 -14.78125 C 4.382812 -14.78125 4.675781 -14.660156 4.90625 -14.421875 C 5.144531 -14.191406 5.265625 -13.898438 5.265625 -13.546875 L 5.265625 -10.234375 C 5.265625 -9.890625 5.378906 -9.597656 5.609375 -9.359375 C 5.847656 -9.128906 6.132812 -9.015625 6.46875 -9.015625 C 6.8125 -9.015625 7.097656 -9.128906 7.328125 -9.359375 C 7.566406 -9.597656 7.6875 -9.890625 7.6875 -10.234375 L 7.6875 -13.546875 C 7.6875 -13.898438 7.804688 -14.191406 8.046875 -14.421875 C 8.285156 -14.660156 8.578125 -14.78125 8.921875 -14.78125 L 10.5 -14.78125 C 10.851562 -14.78125 11.144531 -14.660156 11.375 -14.421875 C 11.613281 -14.191406 11.734375 -13.898438 11.734375 -13.546875 L 11.734375 -1.234375 C 11.734375 -0.890625 11.613281 -0.597656 11.375 -0.359375 C 11.144531 -0.117188 10.851562 0 10.5 0 L 8.921875 0 C 8.578125 0 8.285156 -0.117188 8.046875 -0.359375 C 7.804688 -0.597656 7.6875 -0.890625 7.6875 -1.234375 L 7.6875 -4.546875 C 7.6875 -4.890625 7.566406 -5.179688 7.328125 -5.421875 C 7.097656 -5.660156 6.8125 -5.78125 6.46875 -5.78125 C 6.132812 -5.78125 5.847656 -5.660156 5.609375 -5.421875 C 5.378906 -5.191406 5.265625 -4.90625 5.265625 -4.5625 L 5.265625 -1.234375 C 5.265625 -0.890625 5.144531 -0.597656 4.90625 -0.359375 C 4.675781 -0.117188 4.382812 0 4.03125 0 Z M 2.453125 0 "/></g></g></g><g fill="#ffd3db" fill-opacity="1"><g transform="translate(39.269241, 22.511492)"><g><path d="M 5.75 0 C 4.875 0 4.09375 -0.191406 3.40625 -0.578125 C 2.726562 -0.972656 2.191406 -1.507812 1.796875 -2.1875 C 1.410156 -2.875 1.21875 -3.65625 1.21875 -4.53125 L 1.21875 -13.546875 C 1.21875 -13.898438 1.335938 -14.191406 1.578125 -14.421875 C 1.816406 -14.660156 2.109375 -14.78125 2.453125 -14.78125 L 4.03125 -14.78125 C 4.382812 -14.78125 4.675781 -14.660156 4.90625 -14.421875 C 5.144531 -14.191406 5.265625 -13.898438 5.265625 -13.546875 L 5.265625 -4.5625 C 5.265625 -4.21875 5.378906 -3.925781 5.609375 -3.6875 C 5.847656 -3.457031 6.132812 -3.34375 6.46875 -3.34375 C 6.8125 -3.34375 7.097656 -3.457031 7.328125 -3.6875 C 7.566406 -3.925781 7.6875 -4.21875 7.6875 -4.5625 L 7.6875 -13.546875 C 7.6875 -13.898438 7.804688 -14.191406 8.046875 -14.421875 C 8.285156 -14.660156 8.578125 -14.78125 8.921875 -14.78125 L 10.5 -14.78125 C 10.851562 -14.78125 11.144531 -14.660156 11.375 -14.421875 C 11.613281 -14.191406 11.734375 -13.898438 11.734375 -13.546875 L 11.734375 -4.53125 C 11.734375 -3.65625 11.539062 -2.875 11.15625 -2.1875 C 10.769531 -1.507812 10.234375 -0.972656 9.546875 -0.578125 C 8.859375 -0.191406 8.078125 0 7.203125 0 Z M 5.75 0 "/></g></g></g><g fill="#ffd3db" fill-opacity="1"><g transform="translate(52.746296, 22.511492)"><g><path d="M 2.453125 0 C 2.109375 0 1.816406 -0.117188 1.578125 -0.359375 C 1.335938 -0.597656 1.21875 -0.890625 1.21875 -1.234375 L 1.21875 -13.546875 C 1.21875 -13.898438 1.335938 -14.191406 1.578125 -14.421875 C 1.816406 -14.660156 2.109375 -14.78125 2.453125 -14.78125 L 10.734375 -14.78125 C 11.460938 -14.78125 12.109375 -14.617188 12.671875 -14.296875 C 13.242188 -13.972656 13.691406 -13.523438 14.015625 -12.953125 C 14.347656 -12.390625 14.515625 -11.742188 14.515625 -11.015625 L 14.515625 -9.890625 C 14.515625 -9.515625 14.394531 -9.207031 14.15625 -8.96875 C 13.914062 -8.726562 13.609375 -8.609375 13.234375 -8.609375 L 13.203125 -8.609375 C 12.867188 -8.609375 12.582031 -8.488281 12.34375 -8.25 C 12.113281 -8.019531 12 -7.734375 12 -7.390625 C 12 -7.046875 12.113281 -6.753906 12.34375 -6.515625 C 12.582031 -6.285156 12.867188 -6.171875 13.203125 -6.171875 L 13.234375 -6.171875 C 13.609375 -6.171875 13.914062 -6.050781 14.15625 -5.8125 C 14.394531 -5.570312 14.515625 -5.265625 14.515625 -4.890625 L 14.515625 -3.765625 C 14.515625 -3.046875 14.347656 -2.398438 14.015625 -1.828125 C 13.691406 -1.265625 13.242188 -0.816406 12.671875 -0.484375 C 12.109375 -0.160156 11.460938 0 10.734375 0 Z M 6.46875 -9.015625 L 9.234375 -9.015625 C 9.585938 -9.015625 9.878906 -9.128906 10.109375 -9.359375 C 10.347656 -9.597656 10.46875 -9.882812 10.46875 -10.21875 C 10.46875 -10.5625 10.347656 -10.847656 10.109375 -11.078125 C 9.878906 -11.316406 9.585938 -11.4375 9.234375 -11.4375 L 6.46875 -11.4375 C 6.132812 -11.4375 5.847656 -11.316406 5.609375 -11.078125 C 5.378906 -10.847656 5.265625 -10.5625 5.265625 -10.21875 C 5.265625 -9.882812 5.378906 -9.597656 5.609375 -9.359375 C 5.847656 -9.128906 6.132812 -9.015625 6.46875 -9.015625 Z M 6.46875 -3.34375 L 9.234375 -3.34375 C 9.585938 -3.34375 9.878906 -3.457031 10.109375 -3.6875 C 10.347656 -3.925781 10.46875 -4.21875 10.46875 -4.5625 C 10.46875 -4.894531 10.347656 -5.179688 10.109375 -5.421875 C 9.878906 -5.660156 9.585938 -5.78125 9.234375 -5.78125 L 6.46875 -5.78125 C 6.132812 -5.78125 5.847656 -5.660156 5.609375 -5.421875 C 5.378906 -5.179688 5.265625 -4.894531 5.265625 -4.5625 C 5.265625 -4.21875 5.378906 -3.925781 5.609375 -3.6875 C 5.847656 -3.457031 6.132812 -3.34375 6.46875 -3.34375 Z M 6.46875 -3.34375 "/></g></g></g><g clip-path="url(#1872080613)"><path fill="#ddd78d" d="M 21.265625 21.789062 L 21.410156 21.480469 L 21.507812 21.273438 C 21.527344 21.230469 21.527344 21.179688 21.511719 21.132812 C 21.484375 21.0625 21.457031 20.992188 21.4375 20.921875 C 21.121094 19.808594 21.769531 18.648438 22.882812 18.332031 C 23.996094 18.015625 25.15625 18.664062 25.472656 19.777344 C 25.789062 20.890625 25.140625 22.050781 24.027344 22.367188 C 23.371094 22.554688 22.695312 22.40625 22.191406 22.023438 C 22.15625 21.996094 22.113281 21.984375 22.070312 21.988281 L 21.777344 22.011719 L 21.441406 22.039062 C 21.304688 22.050781 21.207031 21.910156 21.265625 21.789062 Z M 21.265625 21.789062 " fill-opacity="1" fill-rule="nonzero"/></g><path fill="#ddd78d" d="M 24.296875 19.769531 C 24.222656 19.667969 24.121094 19.609375 24 19.59375 C 23.835938 19.574219 23.695312 19.621094 23.574219 19.734375 C 23.527344 19.78125 23.496094 19.832031 23.476562 19.894531 C 23.476562 19.902344 23.472656 19.914062 23.472656 19.921875 C 23.46875 19.914062 23.46875 19.902344 23.464844 19.894531 C 23.449219 19.832031 23.414062 19.78125 23.371094 19.734375 C 23.25 19.621094 23.109375 19.574219 22.945312 19.59375 C 22.820312 19.609375 22.722656 19.667969 22.648438 19.769531 C 22.566406 19.878906 22.542969 20.007812 22.554688 20.140625 C 22.632812 20.734375 23.207031 21.105469 23.460938 21.210938 C 23.464844 21.210938 23.476562 21.210938 23.480469 21.210938 C 23.738281 21.105469 24.3125 20.734375 24.386719 20.140625 C 24.402344 20.007812 24.375 19.878906 24.296875 19.769531 Z M 24.296875 19.769531 " fill-opacity="1" fill-rule="nonzero"/><g clip-path="url(#7c8baeb1e3)"><path fill="#ddd78d" d="M 25.523438 19.761719 C 25.367188 19.210938 25.003906 18.753906 24.503906 18.472656 C 24 18.195312 23.421875 18.125 22.871094 18.28125 C 21.730469 18.605469 21.066406 19.796875 21.386719 20.9375 C 21.410156 21.007812 21.433594 21.082031 21.460938 21.152344 C 21.476562 21.183594 21.472656 21.222656 21.460938 21.253906 L 21.21875 21.765625 C 21.183594 21.839844 21.191406 21.925781 21.238281 21.996094 C 21.285156 22.0625 21.363281 22.097656 21.445312 22.089844 L 22.074219 22.039062 C 22.105469 22.035156 22.132812 22.042969 22.160156 22.0625 C 22.539062 22.351562 22.988281 22.5 23.449219 22.5 C 23.648438 22.5 23.847656 22.472656 24.042969 22.417969 C 24.59375 22.261719 25.050781 21.898438 25.332031 21.398438 C 25.613281 20.894531 25.679688 20.316406 25.523438 19.761719 Z M 25.242188 21.347656 C 24.976562 21.824219 24.539062 22.167969 24.015625 22.316406 C 23.390625 22.492188 22.738281 22.371094 22.222656 21.980469 C 22.183594 21.949219 22.132812 21.933594 22.082031 21.933594 C 22.078125 21.933594 22.070312 21.933594 22.0625 21.9375 L 21.4375 21.988281 C 21.390625 21.992188 21.347656 21.972656 21.324219 21.933594 C 21.296875 21.898438 21.292969 21.851562 21.3125 21.808594 C 21.3125 21.808594 21.554688 21.296875 21.554688 21.296875 C 21.582031 21.238281 21.582031 21.171875 21.558594 21.113281 C 21.53125 21.046875 21.507812 20.976562 21.488281 20.90625 C 21.179688 19.824219 21.8125 18.6875 22.898438 18.382812 C 23.421875 18.234375 23.976562 18.296875 24.453125 18.5625 C 24.929688 18.832031 25.273438 19.265625 25.425781 19.792969 C 25.574219 20.316406 25.507812 20.871094 25.242188 21.347656 Z M 25.242188 21.347656 " fill-opacity="1" fill-rule="nonzero"/></g><path fill="#ddd78d" d="M 24.007812 19.542969 C 23.828125 19.519531 23.671875 19.574219 23.539062 19.699219 C 23.511719 19.722656 23.488281 19.75 23.472656 19.78125 C 23.453125 19.75 23.433594 19.722656 23.40625 19.699219 C 23.273438 19.574219 23.117188 19.519531 22.9375 19.542969 C 22.800781 19.558594 22.691406 19.625 22.605469 19.738281 C 22.523438 19.851562 22.488281 19.992188 22.503906 20.148438 C 22.582031 20.75 23.152344 21.136719 23.441406 21.257812 C 23.449219 21.261719 23.460938 21.265625 23.472656 21.265625 C 23.484375 21.265625 23.492188 21.261719 23.503906 21.257812 C 23.792969 21.136719 24.363281 20.75 24.441406 20.148438 C 24.457031 19.992188 24.421875 19.851562 24.335938 19.738281 C 24.253906 19.625 24.144531 19.558594 24.007812 19.542969 Z M 24.335938 20.136719 C 24.265625 20.683594 23.746094 21.042969 23.472656 21.160156 C 23.195312 21.042969 22.675781 20.683594 22.605469 20.136719 C 22.59375 20.003906 22.621094 19.894531 22.691406 19.800781 C 22.753906 19.710938 22.84375 19.660156 22.949219 19.644531 C 22.972656 19.640625 22.996094 19.640625 23.015625 19.640625 C 23.136719 19.640625 23.242188 19.6875 23.332031 19.773438 C 23.375 19.8125 23.402344 19.859375 23.414062 19.90625 C 23.417969 19.914062 23.417969 19.921875 23.421875 19.929688 L 23.421875 19.933594 C 23.425781 19.957031 23.445312 19.976562 23.472656 19.976562 C 23.496094 19.976562 23.519531 19.957031 23.523438 19.933594 L 23.523438 19.929688 C 23.523438 19.921875 23.527344 19.914062 23.527344 19.90625 C 23.539062 19.859375 23.570312 19.8125 23.609375 19.773438 C 23.71875 19.671875 23.847656 19.625 23.992188 19.644531 C 24.101562 19.660156 24.1875 19.710938 24.253906 19.800781 C 24.324219 19.894531 24.351562 20.003906 24.335938 20.136719 Z M 24.335938 20.136719 " fill-opacity="1" fill-rule="nonzero"/><g clip-path="url(#f7c9f0d3e1)"><path fill="#612940" d="M 22.554688 20.445312 C 22.554688 20.542969 22.519531 20.628906 22.449219 20.699219 C 22.378906 20.773438 22.292969 20.808594 22.191406 20.808594 C 22.09375 20.808594 22.007812 20.773438 21.9375 20.699219 C 21.867188 20.628906 21.828125 20.542969 21.828125 20.445312 C 21.828125 20.34375 21.867188 20.257812 21.9375 20.1875 C 22.007812 20.117188 22.09375 20.082031 22.191406 20.082031 C 22.292969 20.082031 22.378906 20.117188 22.449219 20.1875 C 22.519531 20.257812 22.554688 20.34375 22.554688 20.445312 Z M 22.554688 20.445312 " fill-opacity="1" fill-rule="nonzero"/></g><g clip-path="url(#8e8e9e0159)"><path fill="#612940" d="M 23.820312 20.445312 C 23.820312 20.542969 23.785156 20.628906 23.714844 20.699219 C 23.644531 20.773438 23.558594 20.808594 23.460938 20.808594 C 23.359375 20.808594 23.273438 20.773438 23.203125 20.699219 C 23.132812 20.628906 23.097656 20.542969 23.097656 20.445312 C 23.097656 20.34375 23.132812 20.257812 23.203125 20.1875 C 23.273438 20.117188 23.359375 20.082031 23.460938 20.082031 C 23.558594 20.082031 23.644531 20.117188 23.714844 20.1875 C 23.785156 20.257812 23.820312 20.34375 23.820312 20.445312 Z M 23.820312 20.445312 " fill-opacity="1" fill-rule="nonzero"/></g><g clip-path="url(#77f0a60741)"><path fill="#612940" d="M 25.089844 20.445312 C 25.089844 20.542969 25.054688 20.628906 24.980469 20.699219 C 24.910156 20.773438 24.824219 20.808594 24.726562 20.808594 C 24.625 20.808594 24.539062 20.773438 24.46875 20.699219 C 24.398438 20.628906 24.363281 20.542969 24.363281 20.445312 C 24.363281 20.34375 24.398438 20.257812 24.46875 20.1875 C 24.539062 20.117188 24.625 20.082031 24.726562 20.082031 C 24.824219 20.082031 24.910156 20.117188 24.980469 20.1875 C 25.054688 20.257812 25.089844 20.34375 25.089844 20.445312 Z M 25.089844 20.445312 " fill-opacity="1" fill-rule="nonzero"/></g></svg>